<svg xmlns="http://www.w3.org/2000/svg" xmlns:xlink="http://www.w3.org/1999/xlink" width="630.907" height="523.222" viewBox="0 0 630.907 523.222"><defs><linearGradient id="a" x1="0.5" y1="1" x2="0.5" gradientUnits="objectBoundingBox"><stop offset="0" stop-color="gray" stop-opacity="0.251"/><stop offset="0.54" stop-color="gray" stop-opacity="0.122"/><stop offset="1" stop-color="gray" stop-opacity="0.102"/></linearGradient><linearGradient id="b" x1="6.341" y1="1" x2="6.341" y2="0" xlink:href="#a"/></defs><g transform="translate(0.003 -0.005)"><path d="M706.41,338.693c-24.232,39.2-19.692,92.6-9.049,134.711,3.561,14.1,7.664,28.982,4.619,44.76-3.724,19.293-17.3,34.444-31.04,43.12-25.049,15.778-53.652,15.34-74.48-1.156-17.986-14.249-29.831-39.1-48.2-52.587-30.707-22.573-72.873-8.892-109.486,12.2-25.892,14.889-54.39,33.836-78.322,23.108-16.836-7.533-27.336-28.786-32.236-51.914-2.365-11.166-3.8-23.363-9.219-31.87-3.227-5.057-7.664-8.441-12.263-11.218-41.977-25.31-98.771-4.149-139.252-32.811-27.342-19.352-42.885-59.323-47.994-102.064s-.908-88.475,4.351-133.5c3.744-32.013,8.807-66.261,25.611-92.3,17.777-27.538,45.8-39.854,70.155-37.24s45.5,18.045,63.733,36.907c22.782,23.572,43.329,53.678,72.814,61.283,20.084,5.181,42.016-.817,63.374-4.207,35.659-5.671,70.822-4.044,105.736-1.914,33.425,2.038,67.052,4.573,98.2,16.333,22.037,8.33,38.952,25.67,59.519,36.946,13.406,7.35,28.531,8.284,41.023,18.084,15.386,12.074,28.7,34.359,22.54,62.531C740.671,302.7,719.267,317.891,706.41,338.693Z" transform="translate(-117.18 -49.59)" fill="#fe4fbf" opacity="0.1"/><path d="M781.67,284.8s65.987-55.292,80.661-83.17a398.26,398.26,0,0,1,33.353-51.9" transform="translate(-347.536 -84.303)" fill="none" stroke="#535461" stroke-miterlimit="10" stroke-width="2"/><path d="M927.754,241.705,899.21,235.27S905.946,265.376,927.754,241.705Z" transform="translate(-388.283 -113.957)" fill="#fe4fbf"/><path d="M873.849,198.08l16.425,24.6S858.163,225,873.849,198.08Z" transform="translate(-377.995 -101.064)" fill="#fe4fbf"/><path d="M946.248,207.3,920.16,202.73S936.546,227.655,946.248,207.3Z" transform="translate(-395.545 -102.676)" fill="#fe4fbf"/><path d="M899.676,176.08l12.851,16.83S889.778,195.066,899.676,176.08Z" transform="translate(-387.579 -93.438)" fill="#fe4fbf"/><path d="M940.81,170.95s22.213,1.058,24.827,3.182-3.312,14.569-11.76,12.538S940.81,170.95,940.81,170.95Z" transform="translate(-402.704 -91.659)" fill="#fe4fbf"/><path d="M922.832,140.56s9.075,16.536,8.735,19.685-13.831,6.684-16.556-5.227S922.832,140.56,922.832,140.56Z" transform="translate(-393.604 -81.124)" fill="#fe4fbf"/><circle cx="6.177" cy="6.177" r="6.177" transform="translate(543.808 74.235) rotate(-72.474)" fill="#ffd037"/><circle cx="6.177" cy="6.177" r="6.177" transform="translate(534.138 67.879) rotate(-72.474)" fill="#ffd037"/><path d="M380.885,604.577s10.591-31.5-56.546-69.482c0,0-68.169-19.881-61.2-88.155,0,0-78.583,57.572-25.408,130.909s99.072,57.33,99.072,57.33Z" transform="translate(-152.571 -187.335)" fill="#fe4fbf"/><path d="M378.929,618.807s-32.758-35.4-64.158-49.092a62.529,62.529,0,0,1-17.059-11.361,78.064,78.064,0,0,1-23.585-72.52l7.546-38.893" transform="translate(-171.085 -187.335)" fill="none" stroke="#535461" stroke-miterlimit="10" stroke-width="2"/><rect width="372.8" height="432.855" transform="translate(126.138 21.693)" fill="url(#a)"/><rect width="364.117" height="422.767" transform="translate(130.483 26.73)" fill="#f7f7fd"/><rect width="92.049" height="7.33" transform="translate(152.474 74.384)" fill="#e2e2ec"/><rect width="157.212" height="7.33" transform="translate(152.474 92.305)" fill="#e2e2ec"/><rect width="65.327" height="56.37" transform="translate(411.836 67.38)" fill="#fff"/><path d="M812.334,152.873V208.59h-64.68V152.873h64.68m.653-.653H747v57.023h65.987Z" transform="translate(-335.517 -85.166)" fill="#e2e2ec"/><rect width="65.327" height="56.37" transform="translate(345.855 67.38)" fill="#fff"/><path d="M711.334,152.873V208.59h-64.68V152.873h64.68m.653-.653H646v57.023h65.987Z" transform="translate(-300.504 -85.166)" fill="#e2e2ec"/><rect width="65.327" height="56.37" transform="translate(411.836 124.404)" fill="#fff"/><path d="M812.334,240.153V295.87h-64.68V240.153h64.68m.653-.653H747v57.023h65.987Z" transform="translate(-335.517 -115.423)" fill="#e2e2ec"/><rect width="65.327" height="56.37" transform="translate(345.855 124.404)" fill="#fff"/><path d="M711.334,240.153V295.87h-64.68V240.153h64.68m.653-.653H646v57.023h65.987Z" transform="translate(-300.504 -115.423)" fill="#e2e2ec"/><rect width="65.327" height="56.37" transform="translate(279.875 124.404)" fill="#fff"/><path d="M610.384,240.153V295.87H545.7V240.153h64.68m.653-.653H545.05v57.023h65.987Z" transform="translate(-265.508 -115.423)" fill="#e2e2ec"/><rect width="65.327" height="56.37" transform="translate(213.895 124.404)" fill="#fff"/><path d="M509.394,240.153V295.87h-64.68V240.153h64.68m.653-.653H444.06v57.023h65.987Z" transform="translate(-230.499 -115.423)" fill="#e2e2ec"/><rect width="65.327" height="56.37" transform="translate(147.914 124.404)" fill="#fff"/><path d="M408.4,240.153V295.87h-64.68V240.153H408.4m.653-.653H343.07v57.023h65.987Z" transform="translate(-195.489 -115.423)" fill="#e2e2ec"/><rect width="65.327" height="56.37" transform="translate(411.836 181.42)" fill="#fff"/><path d="M812.334,327.433V383.15h-64.68V327.433h64.68m.653-.653H747V383.8h65.987Z" transform="translate(-335.517 -145.68)" fill="#e2e2ec"/><rect width="65.327" height="56.37" transform="translate(345.855 181.42)" fill="#fff"/><path d="M711.334,327.433V383.15h-64.68V327.433h64.68m.653-.653H646V383.8h65.987Z" transform="translate(-300.504 -145.68)" fill="#e2e2ec"/><rect width="65.327" height="56.37" transform="translate(279.875 181.42)" fill="#fff"/><path d="M610.384,327.433V383.15H545.7V327.433h64.68m.653-.653H545.05V383.8h65.987Z" transform="translate(-265.508 -145.68)" fill="#e2e2ec"/><rect width="65.327" height="56.37" transform="translate(213.895 181.42)" fill="#fff"/><path d="M509.394,327.433V383.15h-64.68V327.433h64.68m.653-.653H444.06V383.8h65.987Z" transform="translate(-230.499 -145.68)" fill="#e2e2ec"/><rect width="65.327" height="56.37" transform="translate(147.914 181.42)" fill="#fff"/><path d="M408.4,327.433V383.15h-64.68V327.433H408.4m.653-.653H343.07V383.8h65.987Z" transform="translate(-195.489 -145.68)" fill="#e2e2ec"/><rect width="65.327" height="56.37" transform="translate(411.836 238.443)" fill="#fff"/><path d="M812.334,414.7V470.42h-64.68V414.7h64.68m.653-.653H747v57.023h65.987Z" transform="translate(-335.517 -175.933)" fill="#e2e2ec"/><rect width="65.327" height="56.37" transform="translate(345.855 238.443)" fill="#fff"/><path d="M711.334,414.7V470.42h-64.68V414.7h64.68m.653-.653H646v57.023h65.987Z" transform="translate(-300.504 -175.933)" fill="#e2e2ec"/><rect width="65.327" height="56.37" transform="translate(279.875 238.443)" fill="#fff"/><path d="M610.384,414.7V470.42H545.7V414.7h64.68m.653-.653H545.05v57.023h65.987Z" transform="translate(-265.508 -175.933)" fill="#e2e2ec"/><rect width="65.327" height="56.37" transform="translate(213.895 238.443)" fill="#fff"/><path d="M509.394,414.7V470.42h-64.68V414.7h64.68m.653-.653H444.06v57.023h65.987Z" transform="translate(-230.499 -175.933)" fill="#e2e2ec"/><rect width="65.327" height="56.37" transform="translate(147.914 238.443)" fill="#fff"/><path d="M408.4,414.7V470.42h-64.68V414.7H408.4m.653-.653H343.07v57.023h65.987Z" transform="translate(-195.489 -175.933)" fill="#e2e2ec"/><rect width="65.327" height="56.37" transform="translate(411.836 295.46)" fill="#fff"/><path d="M812.334,501.983v55.71h-64.68v-55.71h64.68m.653-.653H747v57.017h65.987Z" transform="translate(-335.517 -206.19)" fill="#e2e2ec"/><rect width="65.327" height="56.37" transform="translate(345.855 295.46)" fill="#fff"/><path d="M711.334,501.983v55.71h-64.68v-55.71h64.68m.653-.653H646v57.017h65.987Z" transform="translate(-300.504 -206.19)" fill="#e2e2ec"/><rect width="65.327" height="56.37" transform="translate(279.875 295.46)" fill="#fff"/><path d="M610.384,501.983v55.71H545.7v-55.71h64.68m.653-.653H545.05v57.017h65.987Z" transform="translate(-265.508 -206.19)" fill="#e2e2ec"/><rect width="65.327" height="56.37" transform="translate(213.895 295.46)" fill="#fff"/><path d="M509.394,501.983v55.71h-64.68v-55.71h64.68m.653-.653H444.06v57.017h65.987Z" transform="translate(-230.499 -206.19)" fill="#e2e2ec"/><rect width="65.327" height="56.37" transform="translate(147.914 295.46)" fill="#fff"/><path d="M408.4,501.983v55.71h-64.68v-55.71H408.4m.653-.653H343.07v57.017h65.987Z" transform="translate(-195.489 -206.19)" fill="#e2e2ec"/><rect width="65.327" height="56.37" transform="translate(411.836 352.483)" fill="#fff"/><path d="M812.334,589.253V644.97h-64.68V589.253h64.68m.653-.653H747v57.023h65.987Z" transform="translate(-335.517 -236.443)" fill="#e2e2ec"/><rect width="65.327" height="56.37" transform="translate(345.855 352.483)" fill="#fff"/><path d="M711.334,589.253V644.97h-64.68V589.253h64.68m.653-.653H646v57.023h65.987Z" transform="translate(-300.504 -236.443)" fill="#e2e2ec"/><rect width="65.327" height="56.37" transform="translate(279.875 352.483)" fill="#fff"/><path d="M610.384,589.253V644.97H545.7V589.253h64.68m.653-.653H545.05v57.023h65.987Z" transform="translate(-265.508 -236.443)" fill="#e2e2ec"/><rect width="65.327" height="56.37" transform="translate(213.895 352.483)" fill="#fff"/><path d="M509.394,589.253V644.97h-64.68V589.253h64.68m.653-.653H444.06v57.023h65.987Z" transform="translate(-230.499 -236.443)" fill="#e2e2ec"/><rect width="65.327" height="56.37" transform="translate(147.914 352.483)" fill="#fff"/><path d="M408.4,589.253V644.97h-64.68V589.253H408.4m.653-.653H343.07v57.023h65.987Z" transform="translate(-195.489 -236.443)" fill="#e2e2ec"/><path d="M532.147,745.764c1.868-1.418,3.626-3.09,4.168-5.129a4.338,4.338,0,0,0-2.914-5.227c-2.672-.836-5.527.653-7.7,2.2s-4.645,3.267-7.481,2.947a8.338,8.338,0,0,0,3.521-8.7,3.37,3.37,0,0,0-.98-1.764c-1.483-1.307-4.175-.738-5.952.281-5.651,3.267-7.226,9.506-7.259,15.144-.568-2.032-.091-4.149-.1-6.239s-.712-4.4-2.868-5.521a10.264,10.264,0,0,0-4.377-.843c-2.541-.078-5.37.131-7.1,1.646-2.156,1.882-1.594,5.044.281,7.115s4.73,3.371,7.35,4.8a15,15,0,0,1,5.227,4.09,3.712,3.712,0,0,1,.392.732h15.922a45.779,45.779,0,0,0,9.872-5.54Z" transform="translate(-247.019 -285.232)" fill="#fe4fbf"/><circle cx="3.724" cy="3.724" r="3.724" transform="translate(152.808 129.251)" fill="#fc6681"/><circle cx="3.724" cy="3.724" r="3.724" transform="translate(162.111 129.251)" fill="#ffd037"/><circle cx="3.724" cy="3.724" r="3.724" transform="translate(284.311 184.458)" fill="#fe4fbf"/><circle cx="3.724" cy="3.724" r="3.724" transform="translate(293.621 184.458)" fill="#fe4fbf"/><circle cx="3.724" cy="3.724" r="3.724" transform="translate(483.428 291.148)" fill="#fe4fbf"/><circle cx="3.724" cy="3.724" r="3.724" transform="translate(485.29 286.81)" fill="#fe4fbf"/><circle cx="3.724" cy="3.724" r="3.724" transform="translate(487.152 283.086)" fill="#fe4fbf"/><circle cx="3.724" cy="3.724" r="3.724" transform="translate(417.677 129.251)" fill="#fe4fbf"/><circle cx="3.724" cy="3.724" r="3.724" transform="translate(426.98 129.251)" fill="#fe4fbf"/><circle cx="3.724" cy="3.724" r="3.724" transform="translate(436.29 129.251)" fill="#fe4fbf"/><circle cx="3.724" cy="3.724" r="3.724" transform="translate(445.594 129.251)" fill="#fe4fbf"/><circle cx="3.724" cy="3.724" r="3.724" transform="translate(417.677 244.624)" fill="#fe4fbf"/><circle cx="3.724" cy="3.724" r="3.724" transform="translate(426.98 244.624)" fill="#fe4fbf"/><circle cx="3.724" cy="3.724" r="3.724" transform="translate(436.29 244.624)" fill="#fe4fbf"/><circle cx="3.724" cy="3.724" r="3.724" transform="translate(445.594 244.624)" fill="#fe4fbf"/><circle cx="3.724" cy="3.724" r="3.724" transform="translate(218.559 184.458)" fill="#ffd037"/><circle cx="3.724" cy="3.724" r="3.724" transform="translate(152.808 240.906)" fill="#fc6681"/><path d="M856.726,404.207c4.083,2.411,10.453,3.979,18.522-1.2l-.078,11.473c.575,7.84,10.3,36.528,10.3,36.528l6.86,23.585a184.55,184.55,0,0,1,7.539,51.307c0,5.756.536,11.688,2.189,16.15,3.652,9.872-1.437,22.592-3.646,27.329a114.786,114.786,0,0,1-11.322,3.188,7.749,7.749,0,0,0-1.013.307l-.046-.065s-10.3,4.083-14.87,3.522c-3.41-.418-5.547,3.835-2.875,6.965a20.906,20.906,0,0,1-6.854.9c-4.573-.562-6.866,7.3,1.718,9.552s57.226,0,57.226,0a6.9,6.9,0,0,0,3.659-7.618c3.737-.144,6.069-.255,6.069-.255s8.585-3.92,0-14.615l-.457.346-1.836-5.4v-7.3s10.872-52.267,7.442-58.448-5.148-37.652-5.148-37.652l1.163-34.281c3.1-6.4,4.691-16.438,5.495-24.285a51.532,51.532,0,0,0,2.2-11.518c.137-1.842.248-3.776.32-5.782a38.762,38.762,0,0,0-2.13-12.93c3.267-4.7,8.578-11.976,12.962-16.275a16.7,16.7,0,0,0,5.148-14.615L952.4,324.01l-6.867-32.595c.862-9.042-1.026-14.249-3.11-17.189.5-2.92.96-5.841,1.307-8.774a112.289,112.289,0,0,0-2.006-38.207c-.993-4.371-2.345-8.853-5.41-12.165-3.469-3.75-9.1-6.037-10.395-10.95a31.835,31.835,0,0,0-.8-3.7c-1.255-3.214-5.227-4.384-8.7-4.8-6.194-.751-15.151-1.307-21.1,1.111-4.155,1.7-9.878,6.377-12.152,11.394a8.566,8.566,0,0,0-.372,9.408,21.561,21.561,0,0,0-1.333,7.507,21.926,21.926,0,0,0,13.995,20.338c.137.431.261.856.366,1.274a21.84,21.84,0,0,1,.562,3.064c-.111,1.96-.235,3.979-.327,5.972q-.1.412-.209.81a147.254,147.254,0,0,0-14.373,7.33c3.437,5.057-.575,26.414-.575,26.414-8.585,5.057-17.17,17.986-8.01,31.471s4.005,28.093,4.005,28.093l-1.431,21.972h0v.039l-.287,4.4h.111l-.111,1.666.248.046v1.79c-4.018,1.477-9.892,4.456-13.393,9.963a35.164,35.164,0,0,1-5.991,7.35,4.416,4.416,0,0,0,.686,7.167Zm69.1-58.382a20.907,20.907,0,0,1,2.032-11.054q2.019.039,4.044.046c.137.947.3,1.849.5,2.672,1.163,4.952-3.482,7.324-6.579,8.33Z" transform="translate(-372.788 -99.992)" fill="url(#b)"/><path d="M941.124,756.927l2.2,6.605-7.187,7.187-23.677,5.508-17.072-1.653,1.1-6.056h0a7.3,7.3,0,0,1,5.423-5.338c7.017-1.646,20.4-5.41,23.206-10.63Z" transform="translate(-386.958 -293.279)" fill="#db8b8b"/><path d="M941.124,756.927l2.2,6.605-7.187,7.187-23.677,5.508-17.072-1.653,1.1-6.056h0a7.3,7.3,0,0,1,5.423-5.338c7.017-1.646,20.4-5.41,23.206-10.63Z" transform="translate(-386.958 -293.279)" opacity="0.1"/><path d="M894.183,777.849l3.306-4.4-3.306-5.1s-9.911,4-14.315,3.45-6.605,7.187,1.653,9.362,55.063,0,55.063,0,8.258-3.855,0-14.315l-7.187,5.508s-12.113,6.605-18.169,5.508Z" transform="translate(-380.217 -298.233)" fill="#2e3037"/><path d="M881.1,786.3l17.072,1.653,23.677-5.508,7.187-7.187-.581-1.751-.823-2.457-.823-2.391-15.968-4.4a9.892,9.892,0,0,1-3.267,3.267c-5.187,3.548-14.5,6.109-19.973,7.389a5.734,5.734,0,0,0-.653.2,7.278,7.278,0,0,0-4.743,5.135Z" transform="translate(-382.004 -297.338)" fill="#db8b8b"/><path d="M881.1,791.212l17.072,1.653,23.677-5.508,7.187-7.187-.581-1.751-6.573,5.057s-12.113,6.605-18.169,5.508h-17.1l3.306-4.4-2.966-4.573a7.278,7.278,0,0,0-4.743,5.135Z" transform="translate(-382.004 -302.247)" opacity="0.1"/><path d="M879.853,789.649l3.306-4.4-3.306-5.1s-9.911,4-14.315,3.45-6.605,7.187,1.653,9.362,55.063,0,55.063,0,8.258-3.855,0-14.315l-7.187,5.508s-12.113,6.605-18.169,5.508Z" transform="translate(-375.25 -302.324)" fill="#2e3037"/><path d="M910.6,291.178s26.434,2.751,22.579-8.258a19.821,19.821,0,0,1-.817-9.722,26.95,26.95,0,0,1,4.672-11.2l-24.781,3.855a31.031,31.031,0,0,1,3.358,7.958C918.564,285.487,910.6,291.178,910.6,291.178Z" transform="translate(-392.231 -123.223)" fill="#db8b8b"/><path d="M962.748,498.82s-.549,23.677-6.056,35.241l-1.1,33.588s1.653,30.837,4.959,36.894-7.187,57.265-7.187,57.265v8.813s-17.64,6.605-22.579-1.1l4.959-65.53-2.2-90.853Z" transform="translate(-399.227 -205.32)" fill="#474463"/><path d="M962.748,498.82s-.549,23.677-6.056,35.241l-1.1,33.588s1.653,30.837,4.959,36.894-7.187,57.265-7.187,57.265v8.813s-17.64,6.605-22.579-1.1l4.959-65.53-2.2-90.853Z" transform="translate(-399.227 -205.32)" opacity="0.1"/><path d="M983.424,382.51l3.306,8.814,2.751,18.725a16.562,16.562,0,0,1-4.959,14.315c-6.605,6.605-15.419,20.371-15.419,20.371l-10.453-31.36s10.453-1.653,8.814-8.814-1.111-20.423-1.111-20.423Z" transform="translate(-408.888 -165)" fill="#fc6681"/><path d="M983.424,382.51l3.306,8.814,2.751,18.725a16.562,16.562,0,0,1-4.959,14.315c-6.605,6.605-15.419,20.371-15.419,20.371l-10.453-31.36s10.453-1.653,8.814-8.814-1.111-20.423-1.111-20.423Z" transform="translate(-408.888 -165)" opacity="0.05"/><path d="M921.66,767.533c7.063,11.107,18.058,4.815,20.005,3.561l-.8-2.43-15.968-4.4a9.892,9.892,0,0,1-3.241,3.273Z" transform="translate(-396.065 -297.338)" opacity="0.1"/><path d="M887.85,499.246c.549,7.709,9.911,35.79,9.911,35.79l6.605,23.108a183.878,183.878,0,0,1,7.258,50.268c0,5.638.516,11.453,2.11,15.824,4.4,12.113-4.4,28.636-4.4,28.636,7.709,13.766,20.907,4.4,20.907,4.4v-8.807s10.453-47.909,7.709-57.265-3.855-34.692-3.855-34.692V510.777A51.862,51.862,0,0,0,949.2,477.9c.131-1.8.235-3.7.307-5.664.444-12.413-8.049-26.989-11.368-32.177-.8-1.254-1.307-1.96-1.307-1.96l-48.621,19.286-.111.046v6.043Z" transform="translate(-384.345 -184.271)" fill="#474463"/><path d="M913.13,265.848a31.028,31.028,0,0,1,3.358,7.958,21.56,21.56,0,0,0,16.752-.614A26.951,26.951,0,0,1,937.911,262Z" transform="translate(-393.108 -123.223)" opacity="0.1"/><circle cx="21.475" cy="21.475" r="21.475" transform="translate(509.562 107.926)" fill="#db8b8b"/><path d="M887.85,463.47l.235.046c23.089,4.75,52.077-19.319,52.077-19.319a28.533,28.533,0,0,1-2.006-4.1c-.8-1.254-1.307-1.96-1.307-1.96l-48.621,19.286-.124,1.927Z" transform="translate(-384.345 -184.284)" opacity="0.1"/><path d="M890.731,298.977s30.838-18.725,40.749-11.015l13.766,17.64s8.813,2.751,7.187,20.371l6.579,31.929-19.822,4.959s-11.564,11.015-2.2,26.983c0,0-29.185,24.226-52.313,19.273l1.653-25.879s4.959-14.315-3.855-27.532-.549-25.879,7.709-30.837C890.182,324.862,894.03,303.936,890.731,298.977Z" transform="translate(-381.169 -131.578)" fill="#fc6681"/><path d="M881.713,477.75s-11.564,2.2-17.072,11.015a34.316,34.316,0,0,1-5.762,7.187,4.371,4.371,0,0,0,.653,6.965c4.371,2.613,11.5,4.24,20.5-3.156C895.479,487.112,881.713,477.75,881.713,477.75Z" transform="translate(-373.804 -198.016)" fill="#db8b8b"/><path d="M910.8,321.611s11.015-1.1,13.766,27.532,7.187,35.241,7.187,35.241,2.751,14.87-3.855,23.677-19.273,27.532-19.273,27.532-13.766,3.855-16.516-9.911l17.072-31.935s2.751-11.015-3.855-18.725S893.73,316.1,910.8,321.611Z" transform="translate(-385.821 -143.745)" opacity="0.1"/><path d="M909.082,319.081s11.015-1.1,13.766,27.532,7.187,35.241,7.187,35.241,2.751,14.87-3.855,23.677-19.273,27.532-19.273,27.532-13.766,3.855-16.516-9.911l17.072-31.935s2.75-11.015-3.855-18.725S892.03,313.573,909.082,319.081Z" transform="translate(-385.225 -142.868)" fill="#fc6681"/><path d="M905.065,350.9s-1.1,17.052,3.842,26.434,4.959,21.475,0,28.093" transform="translate(-390.276 -154.041)" opacity="0.1"/><path d="M900.91,313.912s4.4-4.4,17.072-4.959,18.169-4.4,18.169-4.4" transform="translate(-388.872 -137.974)" opacity="0.1"/><path d="M930.347,204.844c3.345.412,7.187,1.561,8.376,4.7a32.2,32.2,0,0,1,.764,3.626c1.248,4.809,6.664,7.049,10,10.728,2.947,3.267,4.247,7.638,5.227,11.917a111.981,111.981,0,0,1,1.96,37.41c-1.071,9.147-3.267,18.124-3.881,27.3s.51,18.823,5.521,26.532c2.156,3.312,5,6.226,6.533,9.872-3.156,2.561-7.513,2.927-11.584,3.064q-7.1.242-14.21,0c-2.483-.085-5.076-.248-7.219-1.5a11.147,11.147,0,0,1-3.789-4.07c-2.711-4.573-3.391-10.127-3.267-15.458s.96-10.636,1.058-15.974c.052-2.907-.176-6-1.849-8.376-1.209-1.718-3.044-2.875-4.613-4.266-5.88-5.227-7.918-13.6-8.114-21.475s1.1-15.758.438-23.605c-.261-3.071-1.411-6.762-4.43-7.357a15.592,15.592,0,0,1-2.875-.366c-2.424-.934-2.189-4.351-2.881-6.854-.777-2.809-3.175-4.978-3.848-7.84-1.588-6.664,6.893-14.615,12.453-16.934C915.771,203.55,924.388,204.112,930.347,204.844Z" transform="translate(-387.68 -103.189)" opacity="0.1"/><path d="M931.187,203.161c3.345.412,7.187,1.561,8.376,4.7a32.185,32.185,0,0,1,.764,3.626c1.248,4.809,6.664,7.049,10,10.728,2.947,3.267,4.247,7.637,5.227,11.917a111.983,111.983,0,0,1,1.96,37.41c-1.071,9.147-3.267,18.123-3.881,27.3s.51,18.823,5.521,26.532c2.156,3.312,5,6.226,6.533,9.872-3.156,2.561-7.513,2.927-11.584,3.064q-7.1.242-14.21,0c-2.483-.085-5.076-.248-7.219-1.5a11.147,11.147,0,0,1-3.789-4.07c-2.711-4.573-3.391-10.127-3.267-15.458s.96-10.636,1.058-15.974c.052-2.907-.176-6-1.849-8.376-1.209-1.718-3.044-2.875-4.613-4.266-5.88-5.227-7.918-13.6-8.114-21.475s1.1-15.758.438-23.605c-.261-3.071-1.411-6.762-4.43-7.357a15.59,15.59,0,0,1-2.875-.366c-2.424-.934-2.189-4.351-2.881-6.854-.777-2.809-3.175-4.978-3.848-7.84-1.588-6.664,6.893-14.615,12.453-16.934C916.611,201.861,925.228,202.423,931.187,203.161Z" transform="translate(-387.971 -102.604)" fill="#472727"/></g></svg>